<svg width="52" height="36" viewBox="0 0 52 36" fill="none" xmlns="http://www.w3.org/2000/svg">
<path d="M52 17.9996C51.9843 17.3854 51.7993 17.0152 51.5625 16.7496L38.5625 0.749519C37.9484 -0.116231 36.5569 -0.253235 35.6869 0.449775C34.8169 1.15279 34.7707 2.46726 35.4687 3.24952L45.8125 15.9996H2C0.8954 15.9996 0 16.895 0 17.9996C0 19.1042 0.8954 19.9996 2 19.9996H45.8125L35.4687 32.7496C34.677 33.5396 34.902 34.9255 35.7377 35.6689C36.3811 36.2411 38.0957 36.0588 38.5625 35.2496L51.5625 19.2496C51.901 18.8352 52.0041 18.527 52 17.9996Z" fill="white"/>
</svg>
